Patient4_TMGait_0pt7_01_right_46_EMG.mot
version=1
nRows=13
nColumns=33
inDegrees=no
endheader
time	1LAddLong	2LGlutMax	3LGlutMed	4LIliopsoas	5LSemiMemb	6LBicFemLong	7LRecFem	8LVastMed	9LVastLat	10LGasMed	11LTibAnt	12lTibPost	13LPeroneusLong	14LSol	15LExtDigLong	16LFlexDigLong	17RAddLong	18RGlutMax	19RGlutMed	20RIliopsoas	21RSemiMemb	22RBicFemLong	23RRecFem	24RVastMed	25RVastLat	26RGasMed	27RTibAnt	28RTibPost	29RPeroneusLong	30RSol	31RExtDigLong	32RFlexDigLong
52.8	0.009766	-0.12894	0.019531	-0.003815	0.024567	-0.74585	0.030212	-0.005035	0.1593	0.72144	0.077972	0.056458	-0.044403	-0.033875	0.082092	-0.055847	-0.078888	-0.14862	-0.069885	0.12314	0.029755	0.1062	0.04303	-0.11581	-0.029297	-0.001068	0.18036	-0.001526	-0.13657	-0.17471	0.001068	0.008545
52.801	0.003052	-0.1294	-0.008087	0.002441	0.009613	-0.46753	0.063019	-0.010529	0.14297	0.53741	0.044403	0.092773	-0.002136	-0.1648	-0.10254	-0.14877	-0.072327	-0.11643	0.053558	0.16998	0.028381	0.10956	0.022278	-0.031433	-0.041504	-0.003357	0.22064	0.001221	0.055237	-0.12772	-0.001526	-0.001221
52.802	0.017395	-0.051117	-0.082092	0.000763	0.041809	-0.1178	0.073547	-0.010223	0.070801	-0.071259	0.1001	-0.075684	0.033569	-0.15884	0.44968	-0.019684	-0.060272	-0.10773	0.41367	0.13275	0.030212	0.097046	-0.03952	-0.046539	-0.044403	-0.003052	0.60928	-0.001526	0.09964	-0.14893	0.003204	-0.00946
52.803	0.028534	-0.044098	-0.024261	-0.013885	0.061951	-0.061798	0.070801	-0.011444	0.018921	-0.40131	0.14221	-0.020599	-0.012054	-0.11322	-0.18555	0.15045	-0.029907	-0.092621	0.89066	0.049896	0.050659	0.088959	-0.006104	-0.028076	-0.030212	0.007629	0.48187	-0.003967	0.21286	-0.14084	-0.002899	-0.008392
52.804	0.027313	-0.006866	0.036621	-0.005646	0.10605	-0.070496	0.072174	-0.002747	0.033722	-0.54932	0.055389	-0.024872	-0.10727	-0.087891	-0.18646	-0.038757	-0.054016	-0.15671	0.67261	-0.003662	0.032043	0.079193	-0.16052	-0.06424	-0.026855	0.011749	-0.66269	-0.007477	0.21118	-0.10941	0.001678	-0.006714
52.805	0.013885	-0.031433	0.029602	-0.014496	0.075073	-0.17609	0.058289	0.000458	0.045166	-0.020142	0.001526	-0.022125	-0.13306	-0.23315	-0.22369	-0.10071	-0.075684	-0.13687	0.32364	-0.037079	0.029449	0.087433	-0.28015	-0.14297	-0.033264	0.020142	-0.47226	-0.005188	-0.047302	-0.032196	-0.003052	-0.010681
52.806	-0.003815	-0.018311	0.033722	0.012054	0.080261	-0.13107	0.036316	0.027618	0.008087	-0.046692	0.007629	-0.02533	-0.11993	-0.21637	-0.21545	-0.014191	-0.075836	-0.17258	0.014648	-0.10681	0.026245	0.074921	-0.30594	-0.11231	-0.048065	0.005951	0.10849	-0.007629	0.23148	0.00061	0.000763	-0.007629
52.807	0.001526	0.009766	0.14343	0.016785	0.015564	-0.32211	-0.005035	0.030212	0.018463	0.10193	0.065308	-0.007629	-0.079803	-0.092163	-0.2124	0.17044	-0.044403	-0.13153	-0.23529	-0.22201	0.029755	0.083313	-0.19745	-0.019989	-0.040131	0.005188	0.33524	-0.00946	-0.10223	0.015564	-0.003357	-0.003052
52.808	0.019836	0.006256	0.30792	0.010223	-0.10071	-0.30868	-0.047607	0.010681	0.094299	-0.009613	0.12009	-0.002899	-0.099792	0.12192	-0.13382	0.021515	-0.022736	-0.15823	-0.20706	-0.20783	0.019989	0.073547	-0.081482	-0.053864	-0.023804	-0.006256	0.42694	-0.011139	-0.13275	0.12924	-0.00412	-0.00885
52.809	0.018768	-0.021362	0.15656	-0.004578	-0.14267	0.05249	0.027313	0.008545	0.093689	-0.17303	0.15198	0.006256	-0.065155	0.3244	-0.087585	0.097046	0.001678	-0.12131	0.007477	-0.16037	0.018616	0.077972	-0.029602	-0.056	-0.030823	-0.01709	0.33707	-0.012054	0.015411	0.20096	-0.002594	-0.005493
52.81	0.016937	-0.051117	0.072632	-0.009155	-0.053101	0.46585	0.02182	0.006561	-0.02594	-0.17181	0.15884	0.021057	0.033875	0.3363	-0.044708	0.044556	0.041809	-0.10544	1.0074	0.002747	0.025787	0.087738	-0.010529	-0.075836	-0.013428	-0.018616	0.1918	-0.012207	0.029144	0.21942	0.001221	0.003815
52.811	0.018463	-0.068665	-0.003204	0.000916	0.12222	0.83923	0.016632	0.014954	-0.14069	-0.10712	0.057983	0.023346	0.15656	0.28168	0.24704	-0.04776	0.060425	-0.14297	0.40695	0.24262	0.024567	0.068054	0.093231	-0.070343	0.001526	-0.007019	0.25818	-0.008392	-0.14938	0.20828	0.001526	0.000916
52.812	0.015564	-0.10513	-0.16098	0.005646	0.080719	1.0071	0.060883	0.002289	-0.14023	0.16083	-0.19547	0.023041	0.16174	0.054169	0.55328	-0.5928	0.096283	-0.17838	0.55466	0.37659	0.017853	0.05127	0.10696	-0.084686	-0.010223	-0.002441	0.3154	-0.009918	-0.13886	0.12436	-0.002441	0.001831
